<svg xmlns="http://www.w3.org/2000/svg" role="img" viewBox="0 0 800 200" width="800" height="200">
  <title>QiSuite Portal — QiAlly</title>
  <desc>Horizontal logo lockup: icon + wordmark for QiSuite (QiAlly)</desc>
  <rect width="100%" height="100%" fill="transparent"/>
  
  <defs>
    <linearGradient id="qiGradient" x1="0%" y1="0%" x2="100%" y2="100%">
      <stop offset="0%" stop-color="#00E7F0"/>
      <stop offset="50%" stop-color="#4F8CFF"/>
      <stop offset="100%" stop-color="#7C4DFF"/>
    </linearGradient>
    <filter id="softGlow" x="-20%" y="-20%" width="140%" height="140%">
      <feGaussianBlur in="SourceGraphic" stdDeviation="2" result="blur"/>
      <feMerge>
        <feMergeNode in="blur"/>
        <feMergeNode in="SourceGraphic"/>
      </feMerge>
    </filter>
    <symbol id="qiMark" viewBox="0 0 256 256">
      <!-- Circular Q base -->
      <circle cx="128" cy="128" r="96" fill="url(#qiGradient)"/>
      <!-- Inner cut to form Q -->
      <circle cx="120" cy="120" r="56" fill="#fff"/>
      <!-- Tail of Q -->
      <path d="M156 156c22 0 40 18 40 40 0 6-1 10-3 16-8-18-22-28-41-31-9-1-18-1-27 1 10-12 19-21 31-26z" fill="#fff" opacity="0.9"/>
      <!-- Hummingbird wing hint -->
      <path d="M52 104c22-10 52-16 76-14 34 3 58 16 72 28-12 2-28 2-44 0-30-4-64-12-104-14z"
            fill="#fff" opacity="0.22"/>
      <path d="M96 64c18-10 46-14 70-8 10 2 22 7 32 14-16 0-28 1-40 4-24 6-42 10-62 18 6-12 14-20 20-28z"
            fill="#fff" opacity="0.18"/>
    </symbol>
  </defs>

  <use href="#qiMark" x="24" y="24" width="152" height="152" filter="url(#softGlow)"/>
  <text x="210" y="106" font-size="64" font-weight="700"
        font-family="system-ui,-apple-system,Segoe UI,Inter,Roboto,Helvetica,Arial,sans-serif"
        fill="#FFFFFF">QiSuite</text>
  
</svg>